<svg data-v-6805eed4="" version="1.0" xmlns="http://www.w3.org/2000/svg" xmlns:xlink="http://www.w3.org/1999/xlink" width="100%" height="100%" viewBox="0 0 340.000000 250.000000" preserveAspectRatio="xMidYMid meet" color-interpolation-filters="sRGB" style="margin: auto;"> <rect data-v-6805eed4="" x="0" y="0" width="100%" height="100%" fill="#ffffff" fill-opacity="0" class="background"></rect> <rect data-v-6805eed4="" x="0" y="0" width="100%" height="100%" fill="url(#watermark)" fill-opacity="1" class="watermarklayer"></rect> <g data-v-6805eed4="" fill="#333" class="icon-text-wrapper icon-svg-group iconsvg" transform="translate(100.51201629638672,101.70952033996582)"><g class="iconsvg-imagesvg" transform="translate(0,0)"><g><rect fill="#333" fill-opacity="0" stroke-width="2" x="0" y="0" width="60" height="46.58095770449041" class="image-rect"></rect> <svg x="0" y="0" width="60" height="46.58095770449041" filtersec="colorsb1110987169" class="image-svg-svg primary" style="overflow: visible;"><svg xmlns="http://www.w3.org/2000/svg" viewBox="-0.06192135438323021 -0.000005723443791794125 128.8063201904297 99.99855041503906"><g fill-rule="evenodd"><path d="M30.69 83.64c26.31-17.79 62.59 10 92.51.88-27.5 22.62-58.2-5.8-92.51-.88z" fill="#49bded"></path><path d="M20.67 88.65C42.46 77 72.5 99.8 97.32 94.75 74.53 110 49.13 87 20.67 88.65z" fill="#49bded"></path><path d="M94.31 4.83a29.72 29.72 0 0 1 13.42 23.23 25.73 25.73 0 0 1-3.6 51Q89.07 42.31 94.31 4.83" fill="#1ca6dd"></path><path d="M78.06 0a29.71 29.71 0 0 1 9.15 1.44Q60 16.73 42.11 51c6-2.79 14.18-.38 24.57 7.21q1.83-23.26 21-56.59a29.32 29.32 0 0 1 4.72 2.09q-19 32-21.44 56.44 20.34 9 31.21 19c-1.29 0-7.26-1-8.07-.59A128.81 128.81 0 0 0 28 52.39c8.09 6.32 13.14 13.09 15.2 20.21 15-1.21 31.48 4 47.78 7.27-.5.18-1 .35-1.51.49q-2.58-.54-5.15-1.13c-7-1.58-14-3.3-21.1-4.29-6.68-.92-13.58-1.2-20.2.3a35.27 35.27 0 0 0-11.51 4.81 23.88 23.88 0 1 1-8.6-46.47 20.15 20.15 0 0 1 25.79-8.7A29.74 29.74 0 0 1 78.06 0" fill="#004587"></path></g></svg></svg> <!----></g></g> <g transform="translate(67,5.344779968261719)"><g data-gra="path-name" fill-rule="" class="tp-name iconsvg-namesvg"><g transform="scale(0.8199999999999998)"><g><path d="M1.23-2.46L1.23-30.06Q1.23-31.11 1.58-31.99L1.58-31.99Q1.93-33.05 2.64-33.75L2.64-33.75Q3.34-34.45 4.39-34.8L4.39-34.8Q5.27-35.16 6.33-35.16L6.33-35.16 12.3-35.16Q13.36-35.16 14.41-34.8L14.41-34.8Q15.29-34.45 16-33.75L16-33.75Q16.7-33.05 17.23-31.99L17.23-31.99Q17.58-31.11 17.58-30.06L17.58-30.06 17.58-5.98Q17.75-6.68 18.11-7.21L18.11-7.21Q19.16-10.37 19.16-14.94L19.16-14.94 19.16-30.76Q19.16-31.82 19.69-32.7L19.69-32.7Q20.04-33.75 20.57-34.45L20.57-34.45Q21.27-35.16 22.15-35.51L22.15-35.51Q23.2-35.86 24.08-36.04L24.08-36.04Q30.06-36.21 36.04-37.09L36.04-37.09Q37.62-37.44 38.85-36.74L38.85-36.74Q40.25-36.21 41.13-34.8L41.13-34.8 43.77-30.59Q37.97-28.65 26.72-28.13L26.72-28.13 26.72-25.49 38.14-25.49Q39.2-25.49 40.08-24.96L40.08-24.96Q41.13-24.61 41.84-23.91L41.84-23.91Q42.54-23.2 42.89-22.32L42.89-22.32Q43.24-21.27 43.24-20.21L43.24-20.21 43.24-17.4 39.9-17.4 39.9 0.53Q39.9 1.58 39.55 2.46L39.55 2.46Q39.02 3.52 38.32 4.22L38.32 4.22Q37.62 4.92 36.74 5.27L36.74 5.27Q35.68 5.63 34.63 5.63L34.63 5.63 31.64 5.63 31.64-17.4 26.72-17.4 26.72-14.94Q26.72-9.67 25.66-4.92L25.66-4.92Q25.31-3.16 24.79-1.41L24.79-1.41Q24.26-0.18 23.38 0.7L23.38 0.7Q22.32 1.76 20.92 1.93L20.92 1.93Q19.51 2.29 18.28 1.76L18.28 1.76Q16.88 1.41 16 0.35L16 0.35 15.82 0 8.61 0 8.61 2.64 6.33 2.64Q5.27 2.64 4.39 2.29L4.39 2.29Q3.34 1.93 2.64 1.23L2.64 1.23Q1.93 0.35 1.58-0.53L1.58-0.53Q1.23-1.41 1.23-2.46L1.23-2.46ZM8.61-27.25L8.61-7.91 10.9-7.91 10.9-27.25 8.61-27.25ZM55.37-37.62L78.22-37.62Q79.28-37.62 80.33-37.27L80.33-37.27Q81.21-36.74 81.91-36.04L81.91-36.04Q82.62-35.33 83.14-34.45L83.14-34.45Q83.5-33.57 83.5-32.52L83.5-32.52Q83.5-23.91 83.67-17.75L83.67-17.75Q83.85-13.89 84.55-9.49L84.55-9.49Q85.08-6.5 85.78-6.15L85.78-6.15Q87.01-5.63 87.71-4.57L87.71-4.57Q88.42-3.69 88.59-2.46L88.59-2.46 88.95-0.7Q89.12 0.7 88.77 1.76L88.77 1.76Q88.42 2.99 87.36 4.04L87.36 4.04Q86.66 4.57 85.96 5.1L85.96 5.1Q84.55 6.15 83.14 6.15L83.14 6.15Q81.74 6.15 80.33 4.22L80.33 4.22Q78.93 2.29 78.05-2.64L78.05-2.64Q78.05-3.16 77.87-3.69L77.87-3.69 77.87-4.22 77.7-4.92 77.17-4.39Q75.41-2.81 73.13-2.99L73.13-2.99Q70.84-3.34 69.61-5.1L69.61-5.1 68.73-6.33Q66.97-4.22 64.86-1.93L64.86-1.93Q63.63-0.53 61.7-0.35L61.7-0.35Q59.94 0 58.36-1.05L58.36-1.05 56.07-2.46Q56.07-1.93 55.9-1.41L55.9-1.41Q55.37 0 54.14 0.88L54.14 0.88Q53.09 1.76 51.68 1.93L51.68 1.93Q50.1 2.11 48.87 1.58L48.87 1.58Q47.46 0.88 46.58-0.35L46.58-0.35 45.53-1.93Q50.1-7.91 50.1-17.4L50.1-17.4 50.1-32.52Q50.1-33.4 50.45-34.45L50.45-34.45Q50.98-35.33 51.68-36.04L51.68-36.04Q52.38-36.74 53.26-37.27L53.26-37.27Q54.32-37.62 55.37-37.62L55.37-37.62ZM57.48-20.39L57.48-17.4Q57.48-10.72 56.95-6.33L56.95-6.33Q58.89-8.44 60.47-10.2L60.47-10.2Q61.7-11.6 61.7-13.54L61.7-13.54Q61.7-15.29 60.47-16.88L60.47-16.88Q59.06-18.63 57.48-20.39L57.48-20.39ZM76.29-23.38L76.29-23.38Q75.41-19.69 74.18-16.35L74.18-16.35Q73.83-15.12 74-13.89L74-13.89Q74.18-12.66 74.88-11.43L74.88-11.43 77.34-8.26Q76.82-12.13 76.64-16.52L76.64-16.52Q76.64-16.7 76.64-16.88L76.64-16.88Q76.46-18.98 76.29-23.38ZM65.74-23.2L67.32-21.27Q67.85-22.32 68.2-23.55L68.2-23.55Q68.91-25.66 70.84-26.72L70.84-26.72Q72.95-27.6 75.06-26.89L75.06-26.89 76.11-26.37Q76.11-28.13 76.11-29.71L76.11-29.71 62.75-29.71Q61.7-29.71 60.64-29.36L60.64-29.36Q59.77-29 59.06-28.3L59.06-28.3Q58.36-27.6 58.01-26.54L58.01-26.54Q57.48-25.66 57.48-24.61L57.48-24.61 57.48-23.38 58.71-24.26Q59.59-24.79 60.47-24.96L60.47-24.96Q61.35-25.31 62.4-25.14L62.4-25.14Q64.51-24.79 65.74-23.2L65.74-23.2Z" transform="translate(-1.2300000190734863, 37.619998931884766)"></path></g> <!----> <!----> <!----> <!----> <!----> <!----> <!----></g></g> <!----></g></g><defs v-gra="od"></defs></svg>